<mxfile host="app.diagrams.net" agent="Mozilla/5.0 (Macintosh; Intel Mac OS X 10_15_7) AppleWebKit/537.36 (KHTML, like Gecko) Chrome/136.0.0.0 Safari/537.36" version="27.0.6" pages="3">
  <diagram name="Simple Minitwit" id="ghDVzeXJiOUVbR5JhGNg">
    <mxGraphModel dx="448" dy="2796" grid="1" gridSize="10" guides="1" tooltips="1" connect="1" arrows="1" fold="1" page="1" pageScale="1" pageWidth="827" pageHeight="1169" math="0" shadow="0">
      <root>
        <mxCell id="r8OlChdxKm2pubxisH3F-0" />
        <mxCell id="r8OlChdxKm2pubxisH3F-1" parent="r8OlChdxKm2pubxisH3F-0" />
        <mxCell id="r8OlChdxKm2pubxisH3F-3" value="&amp;lt;&amp;lt;device&amp;gt;&amp;gt;&lt;br&gt;&lt;b&gt;DigitalOcean Web Server&lt;/b&gt;" style="verticalAlign=top;align=center;spacingTop=8;spacingLeft=2;spacingRight=12;shape=cube;size=10;direction=south;fontStyle=0;html=1;whiteSpace=wrap;" vertex="1" parent="r8OlChdxKm2pubxisH3F-1">
          <mxGeometry x="1810" y="-960" width="1350" height="670" as="geometry" />
        </mxCell>
        <mxCell id="hiEy23RbbXemlwwqK9lv-1" value="" style="group" vertex="1" connectable="0" parent="r8OlChdxKm2pubxisH3F-1">
          <mxGeometry x="2550" y="-592" width="280" height="280" as="geometry" />
        </mxCell>
        <mxCell id="yR3hGrw-X0Y6tIDQcqw4-3" value="&amp;lt;&amp;lt;executionEnvironment&amp;gt;&amp;gt;&lt;br&gt;&lt;b&gt;Worker Node 2&amp;nbsp;&lt;/b&gt;&lt;b&gt;Droplet&lt;/b&gt;" style="verticalAlign=top;align=center;spacingTop=8;spacingLeft=2;spacingRight=12;shape=cube;size=10;direction=south;fontStyle=0;html=1;whiteSpace=wrap;" vertex="1" parent="hiEy23RbbXemlwwqK9lv-1">
          <mxGeometry width="280" height="280" as="geometry" />
        </mxCell>
        <mxCell id="r8OlChdxKm2pubxisH3F-5" value="&amp;lt;&amp;lt;executionEnvironment&amp;gt;&amp;gt;&lt;br&gt;&lt;b&gt;Docker&lt;/b&gt;" style="verticalAlign=top;align=center;spacingTop=8;spacingLeft=2;spacingRight=12;shape=cube;size=10;direction=south;fontStyle=0;html=1;whiteSpace=wrap;" vertex="1" parent="hiEy23RbbXemlwwqK9lv-1">
          <mxGeometry x="20" y="52" width="230" height="206" as="geometry" />
        </mxCell>
        <mxCell id="r8OlChdxKm2pubxisH3F-53" value="«artifact»&lt;br&gt;&lt;b&gt;duwuops/alloy:prod&lt;/b&gt;" style="html=1;dropTarget=0;whiteSpace=wrap;" vertex="1" parent="hiEy23RbbXemlwwqK9lv-1">
          <mxGeometry x="40" y="102" width="180" height="68" as="geometry" />
        </mxCell>
        <mxCell id="r8OlChdxKm2pubxisH3F-54" value="" style="shape=module;jettyWidth=8;jettyHeight=4;" vertex="1" parent="r8OlChdxKm2pubxisH3F-53">
          <mxGeometry x="1" width="20" height="20" relative="1" as="geometry">
            <mxPoint x="-27" y="7" as="offset" />
          </mxGeometry>
        </mxCell>
        <mxCell id="yR3hGrw-X0Y6tIDQcqw4-11" value="«artifact»&lt;br&gt;&lt;b&gt;duwuops/minitwit:prod&lt;/b&gt;" style="html=1;dropTarget=0;whiteSpace=wrap;" vertex="1" parent="hiEy23RbbXemlwwqK9lv-1">
          <mxGeometry x="40" y="178" width="180" height="68" as="geometry" />
        </mxCell>
        <mxCell id="yR3hGrw-X0Y6tIDQcqw4-12" value="" style="shape=module;jettyWidth=8;jettyHeight=4;" vertex="1" parent="yR3hGrw-X0Y6tIDQcqw4-11">
          <mxGeometry x="1" width="20" height="20" relative="1" as="geometry">
            <mxPoint x="-27" y="7" as="offset" />
          </mxGeometry>
        </mxCell>
        <mxCell id="r8OlChdxKm2pubxisH3F-18" value="" style="group" vertex="1" connectable="0" parent="r8OlChdxKm2pubxisH3F-1">
          <mxGeometry x="2910" y="-675" width="220" height="130" as="geometry" />
        </mxCell>
        <mxCell id="r8OlChdxKm2pubxisH3F-19" value="&amp;lt;&amp;lt;executionEnvironment&amp;gt;&amp;gt;&lt;br&gt;&lt;b&gt;Database Droplet&lt;/b&gt;" style="verticalAlign=top;align=center;spacingTop=8;spacingLeft=2;spacingRight=12;shape=cube;size=10;direction=south;fontStyle=0;html=1;whiteSpace=wrap;" vertex="1" parent="r8OlChdxKm2pubxisH3F-18">
          <mxGeometry width="220" height="130" as="geometry" />
        </mxCell>
        <mxCell id="r8OlChdxKm2pubxisH3F-20" value="PostgreSQL Container" style="shape=cylinder3;whiteSpace=wrap;html=1;boundedLbl=1;backgroundOutline=1;size=15;" vertex="1" parent="r8OlChdxKm2pubxisH3F-18">
          <mxGeometry x="17" y="52" width="180" height="66" as="geometry" />
        </mxCell>
        <mxCell id="hiEy23RbbXemlwwqK9lv-2" value="" style="group" vertex="1" connectable="0" parent="r8OlChdxKm2pubxisH3F-1">
          <mxGeometry x="2550" y="-910" width="280" height="280" as="geometry" />
        </mxCell>
        <mxCell id="yR3hGrw-X0Y6tIDQcqw4-2" value="&amp;lt;&amp;lt;executionEnvironment&amp;gt;&amp;gt;&lt;br&gt;&lt;b&gt;Worker Node 1&amp;nbsp;&lt;/b&gt;&lt;b&gt;Droplet&lt;/b&gt;" style="verticalAlign=top;align=center;spacingTop=8;spacingLeft=2;spacingRight=12;shape=cube;size=10;direction=south;fontStyle=0;html=1;whiteSpace=wrap;" vertex="1" parent="hiEy23RbbXemlwwqK9lv-2">
          <mxGeometry width="280" height="280" as="geometry" />
        </mxCell>
        <mxCell id="r8OlChdxKm2pubxisH3F-6" value="&amp;lt;&amp;lt;executionEnvironment&amp;gt;&amp;gt;&lt;br&gt;&lt;b&gt;Docker&lt;/b&gt;" style="verticalAlign=top;align=center;spacingTop=8;spacingLeft=2;spacingRight=12;shape=cube;size=10;direction=south;fontStyle=0;html=1;whiteSpace=wrap;" vertex="1" parent="hiEy23RbbXemlwwqK9lv-2">
          <mxGeometry x="20" y="50" width="230" height="210" as="geometry" />
        </mxCell>
        <mxCell id="r8OlChdxKm2pubxisH3F-51" value="«artifact»&lt;br&gt;&lt;b&gt;duwuops/alloy:prod&lt;/b&gt;" style="html=1;dropTarget=0;whiteSpace=wrap;" vertex="1" parent="hiEy23RbbXemlwwqK9lv-2">
          <mxGeometry x="40" y="100" width="180" height="68" as="geometry" />
        </mxCell>
        <mxCell id="r8OlChdxKm2pubxisH3F-52" value="" style="shape=module;jettyWidth=8;jettyHeight=4;" vertex="1" parent="r8OlChdxKm2pubxisH3F-51">
          <mxGeometry x="1" width="20" height="20" relative="1" as="geometry">
            <mxPoint x="-27" y="7" as="offset" />
          </mxGeometry>
        </mxCell>
        <mxCell id="yR3hGrw-X0Y6tIDQcqw4-7" value="«artifact»&lt;br&gt;&lt;b&gt;duwuops/minitwit:prod&lt;/b&gt;" style="html=1;dropTarget=0;whiteSpace=wrap;" vertex="1" parent="hiEy23RbbXemlwwqK9lv-2">
          <mxGeometry x="40" y="178" width="180" height="68" as="geometry" />
        </mxCell>
        <mxCell id="yR3hGrw-X0Y6tIDQcqw4-8" value="" style="shape=module;jettyWidth=8;jettyHeight=4;" vertex="1" parent="yR3hGrw-X0Y6tIDQcqw4-7">
          <mxGeometry x="1" width="20" height="20" relative="1" as="geometry">
            <mxPoint x="-27" y="7" as="offset" />
          </mxGeometry>
        </mxCell>
        <mxCell id="hiEy23RbbXemlwwqK9lv-4" value="" style="group" vertex="1" connectable="0" parent="r8OlChdxKm2pubxisH3F-1">
          <mxGeometry x="1830" y="-760" width="690" height="300" as="geometry" />
        </mxCell>
        <mxCell id="r8OlChdxKm2pubxisH3F-4" value="&amp;lt;&amp;lt;executionEnvironment&amp;gt;&amp;gt;&lt;br&gt;&lt;b&gt;Manager Node&amp;nbsp;&lt;/b&gt;&lt;b&gt;Droplet&lt;/b&gt;" style="verticalAlign=top;align=center;spacingTop=8;spacingLeft=2;spacingRight=12;shape=cube;size=10;direction=south;fontStyle=0;html=1;whiteSpace=wrap;" vertex="1" parent="hiEy23RbbXemlwwqK9lv-4">
          <mxGeometry width="690" height="300" as="geometry" />
        </mxCell>
        <mxCell id="yR3hGrw-X0Y6tIDQcqw4-13" value="" style="group" vertex="1" connectable="0" parent="hiEy23RbbXemlwwqK9lv-4">
          <mxGeometry x="20" y="100" width="183" height="150" as="geometry" />
        </mxCell>
        <mxCell id="r8OlChdxKm2pubxisH3F-21" value="" style="group" vertex="1" connectable="0" parent="yR3hGrw-X0Y6tIDQcqw4-13">
          <mxGeometry y="80" width="183" height="70" as="geometry" />
        </mxCell>
        <mxCell id="r8OlChdxKm2pubxisH3F-22" value="«deployment-spec»&lt;br&gt;&lt;b&gt;docker-compose.deploy.yml&lt;/b&gt;" style="html=1;whiteSpace=wrap;" vertex="1" parent="r8OlChdxKm2pubxisH3F-21">
          <mxGeometry width="183" height="70" as="geometry" />
        </mxCell>
        <mxCell id="r8OlChdxKm2pubxisH3F-23" value="" style="shape=note;whiteSpace=wrap;html=1;backgroundOutline=1;darkOpacity=0.05;size=9;" vertex="1" parent="r8OlChdxKm2pubxisH3F-21">
          <mxGeometry x="155" y="7" width="20" height="25" as="geometry" />
        </mxCell>
        <mxCell id="r8OlChdxKm2pubxisH3F-24" value="" style="group" vertex="1" connectable="0" parent="yR3hGrw-X0Y6tIDQcqw4-13">
          <mxGeometry width="183" height="70" as="geometry" />
        </mxCell>
        <mxCell id="r8OlChdxKm2pubxisH3F-25" value="«deployment-spec»&lt;br&gt;&lt;b&gt;docker-compose.yml&lt;/b&gt;" style="html=1;whiteSpace=wrap;" vertex="1" parent="r8OlChdxKm2pubxisH3F-24">
          <mxGeometry width="183" height="70" as="geometry" />
        </mxCell>
        <mxCell id="r8OlChdxKm2pubxisH3F-26" value="" style="shape=note;whiteSpace=wrap;html=1;backgroundOutline=1;darkOpacity=0.05;size=9;" vertex="1" parent="r8OlChdxKm2pubxisH3F-24">
          <mxGeometry x="155" y="7" width="20" height="25" as="geometry" />
        </mxCell>
        <mxCell id="hiEy23RbbXemlwwqK9lv-3" value="" style="group" vertex="1" connectable="0" parent="hiEy23RbbXemlwwqK9lv-4">
          <mxGeometry x="218" y="60" width="440" height="220" as="geometry" />
        </mxCell>
        <mxCell id="r8OlChdxKm2pubxisH3F-62" value="&amp;lt;&amp;lt;executionEnvironment&amp;gt;&amp;gt;&lt;br&gt;&lt;b&gt;Docker&lt;/b&gt;" style="verticalAlign=top;align=center;spacingTop=8;spacingLeft=2;spacingRight=12;shape=cube;size=10;direction=south;fontStyle=0;html=1;whiteSpace=wrap;container=0;" vertex="1" parent="hiEy23RbbXemlwwqK9lv-3">
          <mxGeometry width="440" height="220" as="geometry" />
        </mxCell>
        <mxCell id="r8OlChdxKm2pubxisH3F-63" value="«artifact»&lt;br&gt;&lt;b&gt;duwuops/grafana:prod&lt;/b&gt;" style="html=1;dropTarget=0;whiteSpace=wrap;" vertex="1" parent="hiEy23RbbXemlwwqK9lv-3">
          <mxGeometry x="28" y="136" width="180" height="68" as="geometry" />
        </mxCell>
        <mxCell id="r8OlChdxKm2pubxisH3F-64" value="" style="shape=module;jettyWidth=8;jettyHeight=4;" vertex="1" parent="r8OlChdxKm2pubxisH3F-63">
          <mxGeometry x="1" width="20" height="20" relative="1" as="geometry">
            <mxPoint x="-27" y="7" as="offset" />
          </mxGeometry>
        </mxCell>
        <mxCell id="r8OlChdxKm2pubxisH3F-65" value="«artifact»&lt;br&gt;&lt;b&gt;duwuops/prometheus:prod&lt;/b&gt;" style="html=1;dropTarget=0;whiteSpace=wrap;" vertex="1" parent="hiEy23RbbXemlwwqK9lv-3">
          <mxGeometry x="28" y="56" width="180" height="68" as="geometry" />
        </mxCell>
        <mxCell id="r8OlChdxKm2pubxisH3F-66" value="" style="shape=module;jettyWidth=8;jettyHeight=4;" vertex="1" parent="r8OlChdxKm2pubxisH3F-65">
          <mxGeometry x="1" width="20" height="20" relative="1" as="geometry">
            <mxPoint x="-27" y="7" as="offset" />
          </mxGeometry>
        </mxCell>
        <mxCell id="r8OlChdxKm2pubxisH3F-69" value="«artifact»&lt;br&gt;&lt;b&gt;duwuops/loki:prod&lt;/b&gt;" style="html=1;dropTarget=0;whiteSpace=wrap;" vertex="1" parent="hiEy23RbbXemlwwqK9lv-3">
          <mxGeometry x="220" y="135" width="180" height="68" as="geometry" />
        </mxCell>
        <mxCell id="r8OlChdxKm2pubxisH3F-70" value="" style="shape=module;jettyWidth=8;jettyHeight=4;" vertex="1" parent="r8OlChdxKm2pubxisH3F-69">
          <mxGeometry x="1" width="20" height="20" relative="1" as="geometry">
            <mxPoint x="-27" y="7" as="offset" />
          </mxGeometry>
        </mxCell>
        <mxCell id="r8OlChdxKm2pubxisH3F-67" value="«artifact»&lt;br&gt;&lt;b&gt;duwuops/alloy:prod&lt;/b&gt;" style="html=1;dropTarget=0;whiteSpace=wrap;" vertex="1" parent="hiEy23RbbXemlwwqK9lv-3">
          <mxGeometry x="220" y="56" width="180" height="68" as="geometry" />
        </mxCell>
        <mxCell id="r8OlChdxKm2pubxisH3F-68" value="" style="shape=module;jettyWidth=8;jettyHeight=4;" vertex="1" parent="r8OlChdxKm2pubxisH3F-67">
          <mxGeometry x="1" width="20" height="20" relative="1" as="geometry">
            <mxPoint x="-27" y="7" as="offset" />
          </mxGeometry>
        </mxCell>
        <mxCell id="r8OlChdxKm2pubxisH3F-57" value="" style="endArrow=none;startArrow=none;html=1;rounded=0;startFill=0;edgeStyle=orthogonalEdgeStyle;curved=1;exitX=0.999;exitY=0.223;exitDx=0;exitDy=0;exitPerimeter=0;strokeWidth=2;" edge="1" parent="r8OlChdxKm2pubxisH3F-1" source="r8OlChdxKm2pubxisH3F-62" target="r8OlChdxKm2pubxisH3F-5">
          <mxGeometry width="50" height="50" relative="1" as="geometry">
            <mxPoint x="2500" y="-487" as="sourcePoint" />
            <mxPoint x="2510" y="-250" as="targetPoint" />
            <Array as="points">
              <mxPoint x="2390" y="-390" />
            </Array>
          </mxGeometry>
        </mxCell>
        <mxCell id="r8OlChdxKm2pubxisH3F-60" value="" style="endArrow=none;html=1;rounded=0;entryX=0;entryY=0;entryDx=0;entryDy=42;entryPerimeter=0;edgeStyle=orthogonalEdgeStyle;curved=1;startFill=0;startArrow=none;strokeWidth=2;" edge="1" parent="r8OlChdxKm2pubxisH3F-1" source="yR3hGrw-X0Y6tIDQcqw4-11" target="r8OlChdxKm2pubxisH3F-20">
          <mxGeometry width="50" height="50" relative="1" as="geometry">
            <mxPoint x="2330" y="-720" as="sourcePoint" />
            <mxPoint x="2380" y="-770" as="targetPoint" />
          </mxGeometry>
        </mxCell>
        <mxCell id="r8OlChdxKm2pubxisH3F-59" value="" style="endArrow=none;html=1;rounded=0;entryX=0;entryY=0;entryDx=0;entryDy=24;entryPerimeter=0;edgeStyle=orthogonalEdgeStyle;curved=1;startFill=0;startArrow=none;strokeWidth=2;" edge="1" parent="r8OlChdxKm2pubxisH3F-1" source="yR3hGrw-X0Y6tIDQcqw4-7" target="r8OlChdxKm2pubxisH3F-20">
          <mxGeometry width="50" height="50" relative="1" as="geometry">
            <mxPoint x="2330" y="-720" as="sourcePoint" />
            <mxPoint x="2380" y="-770" as="targetPoint" />
          </mxGeometry>
        </mxCell>
        <mxCell id="r8OlChdxKm2pubxisH3F-56" value="" style="endArrow=none;startArrow=none;html=1;rounded=0;startFill=0;edgeStyle=orthogonalEdgeStyle;curved=1;exitX=-0.003;exitY=0.246;exitDx=0;exitDy=0;exitPerimeter=0;strokeWidth=2;" edge="1" parent="r8OlChdxKm2pubxisH3F-1" source="r8OlChdxKm2pubxisH3F-62" target="r8OlChdxKm2pubxisH3F-6">
          <mxGeometry width="50" height="50" relative="1" as="geometry">
            <mxPoint x="2240" y="-670" as="sourcePoint" />
            <mxPoint x="2600" y="-990" as="targetPoint" />
            <Array as="points">
              <mxPoint x="2380" y="-790" />
            </Array>
          </mxGeometry>
        </mxCell>
      </root>
    </mxGraphModel>
  </diagram>
  <diagram name="Complex Minitwit" id="25oIEVVLG39mlsYZt4kh">
    <mxGraphModel dx="3153" dy="3609" grid="1" gridSize="10" guides="1" tooltips="1" connect="1" arrows="1" fold="1" page="1" pageScale="1" pageWidth="827" pageHeight="1169" math="0" shadow="0">
      <root>
        <mxCell id="IdghF8tD-fZZ1xPUse18-0" />
        <mxCell id="IdghF8tD-fZZ1xPUse18-1" parent="IdghF8tD-fZZ1xPUse18-0" />
        <mxCell id="llDihB3YxBTTd4F39NOo-9" value="&amp;lt;&amp;lt;device&amp;gt;&amp;gt;&lt;br&gt;&lt;b&gt;GitHub Web Server&lt;/b&gt;" style="verticalAlign=top;align=center;spacingTop=8;spacingLeft=2;spacingRight=12;shape=cube;size=10;direction=south;fontStyle=0;html=1;whiteSpace=wrap;" vertex="1" parent="IdghF8tD-fZZ1xPUse18-1">
          <mxGeometry x="750" y="-720" width="970" height="520" as="geometry" />
        </mxCell>
        <mxCell id="Jr-4Hn71MBpdXtiZNSK_-5" value="&amp;lt;&amp;lt;device&amp;gt;&amp;gt;&lt;br&gt;&lt;b&gt;DigitalOcean Web Server&lt;/b&gt;" style="verticalAlign=top;align=center;spacingTop=8;spacingLeft=2;spacingRight=12;shape=cube;size=10;direction=south;fontStyle=0;html=1;whiteSpace=wrap;" vertex="1" parent="IdghF8tD-fZZ1xPUse18-1">
          <mxGeometry x="1800" y="-200" width="1260" height="500" as="geometry" />
        </mxCell>
        <mxCell id="llDihB3YxBTTd4F39NOo-1" value="&amp;lt;&amp;lt;executionEnvironment&amp;gt;&amp;gt;&lt;br&gt;&lt;b&gt;Manager Node&amp;nbsp;&lt;/b&gt;&lt;b&gt;Droplet&lt;/b&gt;" style="verticalAlign=top;align=center;spacingTop=8;spacingLeft=2;spacingRight=12;shape=cube;size=10;direction=south;fontStyle=0;html=1;whiteSpace=wrap;" vertex="1" parent="IdghF8tD-fZZ1xPUse18-1">
          <mxGeometry x="1830" y="-135" width="700" height="400" as="geometry" />
        </mxCell>
        <mxCell id="llDihB3YxBTTd4F39NOo-6" value="&amp;lt;&amp;lt;executionEnvironment&amp;gt;&amp;gt;&lt;br&gt;&lt;b&gt;Worker Node 1&amp;nbsp;&lt;/b&gt;&lt;b&gt;Droplet&lt;/b&gt;" style="verticalAlign=top;align=center;spacingTop=8;spacingLeft=2;spacingRight=12;shape=cube;size=10;direction=south;fontStyle=0;html=1;whiteSpace=wrap;" vertex="1" parent="IdghF8tD-fZZ1xPUse18-1">
          <mxGeometry x="2570" y="150" width="220" height="130" as="geometry" />
        </mxCell>
        <mxCell id="llDihB3YxBTTd4F39NOo-8" value="&amp;lt;&amp;lt;executionEnvironment&amp;gt;&amp;gt;&lt;br&gt;&lt;b&gt;Worker Node 2&amp;nbsp;&lt;/b&gt;&lt;b&gt;Droplet&lt;/b&gt;" style="verticalAlign=top;align=center;spacingTop=8;spacingLeft=2;spacingRight=12;shape=cube;size=10;direction=south;fontStyle=0;html=1;whiteSpace=wrap;" vertex="1" parent="IdghF8tD-fZZ1xPUse18-1">
          <mxGeometry x="2570" y="-160" width="220" height="130" as="geometry" />
        </mxCell>
        <mxCell id="llDihB3YxBTTd4F39NOo-11" value="&amp;lt;&amp;lt;device&amp;gt;&amp;gt;&lt;br&gt;&lt;b&gt;DockerHub Web Server&lt;/b&gt;" style="verticalAlign=top;align=center;spacingTop=8;spacingLeft=2;spacingRight=12;shape=cube;size=10;direction=south;fontStyle=0;html=1;whiteSpace=wrap;" vertex="1" parent="IdghF8tD-fZZ1xPUse18-1">
          <mxGeometry x="1810" y="-587.5" width="990" height="150" as="geometry" />
        </mxCell>
        <mxCell id="QyBN33wrz6--oar-33s9-0" value="«artifact»&lt;br&gt;&lt;b&gt;duwuops/minitwit:prod&lt;/b&gt;" style="html=1;dropTarget=0;whiteSpace=wrap;" vertex="1" parent="IdghF8tD-fZZ1xPUse18-1">
          <mxGeometry x="1830" y="-527.5" width="180" height="68" as="geometry" />
        </mxCell>
        <mxCell id="QyBN33wrz6--oar-33s9-1" value="" style="shape=module;jettyWidth=8;jettyHeight=4;" vertex="1" parent="QyBN33wrz6--oar-33s9-0">
          <mxGeometry x="1" width="20" height="20" relative="1" as="geometry">
            <mxPoint x="-27" y="7" as="offset" />
          </mxGeometry>
        </mxCell>
        <mxCell id="QyBN33wrz6--oar-33s9-2" value="«artifact»&lt;br&gt;&lt;b&gt;duwuops/grafana:prod&lt;/b&gt;" style="html=1;dropTarget=0;whiteSpace=wrap;" vertex="1" parent="IdghF8tD-fZZ1xPUse18-1">
          <mxGeometry x="2210" y="-527.5" width="180" height="68" as="geometry" />
        </mxCell>
        <mxCell id="QyBN33wrz6--oar-33s9-3" value="" style="shape=module;jettyWidth=8;jettyHeight=4;" vertex="1" parent="QyBN33wrz6--oar-33s9-2">
          <mxGeometry x="1" width="20" height="20" relative="1" as="geometry">
            <mxPoint x="-27" y="7" as="offset" />
          </mxGeometry>
        </mxCell>
        <mxCell id="QyBN33wrz6--oar-33s9-4" value="«artifact»&lt;br&gt;&lt;b&gt;duwuops/prometheus:prod&lt;/b&gt;" style="html=1;dropTarget=0;whiteSpace=wrap;" vertex="1" parent="IdghF8tD-fZZ1xPUse18-1">
          <mxGeometry x="2020" y="-527.5" width="180" height="68" as="geometry" />
        </mxCell>
        <mxCell id="QyBN33wrz6--oar-33s9-5" value="" style="shape=module;jettyWidth=8;jettyHeight=4;" vertex="1" parent="QyBN33wrz6--oar-33s9-4">
          <mxGeometry x="1" width="20" height="20" relative="1" as="geometry">
            <mxPoint x="-27" y="7" as="offset" />
          </mxGeometry>
        </mxCell>
        <mxCell id="QyBN33wrz6--oar-33s9-6" value="«artifact»&lt;br&gt;&lt;b&gt;duwuops/alloy:prod&lt;/b&gt;" style="html=1;dropTarget=0;whiteSpace=wrap;" vertex="1" parent="IdghF8tD-fZZ1xPUse18-1">
          <mxGeometry x="2400" y="-527.5" width="180" height="68" as="geometry" />
        </mxCell>
        <mxCell id="QyBN33wrz6--oar-33s9-7" value="" style="shape=module;jettyWidth=8;jettyHeight=4;" vertex="1" parent="QyBN33wrz6--oar-33s9-6">
          <mxGeometry x="1" width="20" height="20" relative="1" as="geometry">
            <mxPoint x="-27" y="7" as="offset" />
          </mxGeometry>
        </mxCell>
        <mxCell id="QyBN33wrz6--oar-33s9-8" value="«artifact»&lt;br&gt;&lt;b&gt;duwuops/loki:prod&lt;/b&gt;" style="html=1;dropTarget=0;whiteSpace=wrap;" vertex="1" parent="IdghF8tD-fZZ1xPUse18-1">
          <mxGeometry x="2590" y="-527.5" width="180" height="68" as="geometry" />
        </mxCell>
        <mxCell id="QyBN33wrz6--oar-33s9-9" value="" style="shape=module;jettyWidth=8;jettyHeight=4;" vertex="1" parent="QyBN33wrz6--oar-33s9-8">
          <mxGeometry x="1" width="20" height="20" relative="1" as="geometry">
            <mxPoint x="-27" y="7" as="offset" />
          </mxGeometry>
        </mxCell>
        <mxCell id="Jr-4Hn71MBpdXtiZNSK_-3" value="" style="group" vertex="1" connectable="0" parent="IdghF8tD-fZZ1xPUse18-1">
          <mxGeometry x="2810" width="220" height="130" as="geometry" />
        </mxCell>
        <mxCell id="Jr-4Hn71MBpdXtiZNSK_-1" value="&amp;lt;&amp;lt;executionEnvironment&amp;gt;&amp;gt;&lt;br&gt;&lt;b&gt;Database Droplet&lt;/b&gt;" style="verticalAlign=top;align=center;spacingTop=8;spacingLeft=2;spacingRight=12;shape=cube;size=10;direction=south;fontStyle=0;html=1;whiteSpace=wrap;" vertex="1" parent="Jr-4Hn71MBpdXtiZNSK_-3">
          <mxGeometry width="220" height="130" as="geometry" />
        </mxCell>
        <mxCell id="Jr-4Hn71MBpdXtiZNSK_-2" value="PostgreSQL Container" style="shape=cylinder3;whiteSpace=wrap;html=1;boundedLbl=1;backgroundOutline=1;size=15;" vertex="1" parent="Jr-4Hn71MBpdXtiZNSK_-3">
          <mxGeometry x="17" y="52" width="180" height="66" as="geometry" />
        </mxCell>
        <mxCell id="MqT093NhRoBbuphoOy9v-0" value="" style="group" vertex="1" connectable="0" parent="IdghF8tD-fZZ1xPUse18-1">
          <mxGeometry x="1850" y="65" width="183" height="70" as="geometry" />
        </mxCell>
        <mxCell id="MqT093NhRoBbuphoOy9v-1" value="«artifact»&lt;br&gt;&lt;b&gt;docker-compose.deploy.yml&lt;/b&gt;" style="html=1;whiteSpace=wrap;" vertex="1" parent="MqT093NhRoBbuphoOy9v-0">
          <mxGeometry width="183" height="70" as="geometry" />
        </mxCell>
        <mxCell id="MqT093NhRoBbuphoOy9v-2" value="" style="shape=note;whiteSpace=wrap;html=1;backgroundOutline=1;darkOpacity=0.05;size=9;" vertex="1" parent="MqT093NhRoBbuphoOy9v-0">
          <mxGeometry x="155" y="7" width="20" height="25" as="geometry" />
        </mxCell>
        <mxCell id="MqT093NhRoBbuphoOy9v-3" value="" style="group" vertex="1" connectable="0" parent="IdghF8tD-fZZ1xPUse18-1">
          <mxGeometry x="1850" y="-15" width="183" height="70" as="geometry" />
        </mxCell>
        <mxCell id="MqT093NhRoBbuphoOy9v-4" value="«artifact»&lt;br&gt;&lt;b&gt;docker-compose.yml&lt;/b&gt;" style="html=1;whiteSpace=wrap;" vertex="1" parent="MqT093NhRoBbuphoOy9v-3">
          <mxGeometry width="183" height="70" as="geometry" />
        </mxCell>
        <mxCell id="MqT093NhRoBbuphoOy9v-5" value="" style="shape=note;whiteSpace=wrap;html=1;backgroundOutline=1;darkOpacity=0.05;size=9;" vertex="1" parent="MqT093NhRoBbuphoOy9v-3">
          <mxGeometry x="155" y="7" width="20" height="25" as="geometry" />
        </mxCell>
        <mxCell id="8T8P0orawlrlJ7Gp9K8P-12" value="" style="group" vertex="1" connectable="0" parent="IdghF8tD-fZZ1xPUse18-1">
          <mxGeometry x="1000" y="-650" width="690" height="420" as="geometry" />
        </mxCell>
        <mxCell id="8T8P0orawlrlJ7Gp9K8P-1" value="&amp;lt;&amp;lt;executionEnvironment&amp;gt;&amp;gt;&lt;br&gt;&lt;b&gt;GitHub Actions&lt;/b&gt;" style="verticalAlign=top;align=center;spacingTop=8;spacingLeft=2;spacingRight=12;shape=cube;size=10;direction=south;fontStyle=0;html=1;whiteSpace=wrap;" vertex="1" parent="8T8P0orawlrlJ7Gp9K8P-12">
          <mxGeometry width="690" height="420" as="geometry" />
        </mxCell>
        <mxCell id="8T8P0orawlrlJ7Gp9K8P-10" value="" style="group" vertex="1" connectable="0" parent="8T8P0orawlrlJ7Gp9K8P-12">
          <mxGeometry x="30" y="62.5" width="620" height="157.5" as="geometry" />
        </mxCell>
        <mxCell id="8T8P0orawlrlJ7Gp9K8P-0" value="&lt;br&gt;&lt;br&gt;&quot;Build &amp;amp; Push&quot;-job" style="shape=folder;fontStyle=1;spacingTop=10;tabWidth=140;tabHeight=30;tabPosition=left;html=1;whiteSpace=wrap;verticalAlign=top;" vertex="1" parent="8T8P0orawlrlJ7Gp9K8P-10">
          <mxGeometry width="620" height="157.5" as="geometry" />
        </mxCell>
        <mxCell id="MqT093NhRoBbuphoOy9v-7" value="«artifact»&lt;br&gt;&lt;b&gt;docker/bake-action@master&lt;/b&gt;" style="html=1;dropTarget=0;whiteSpace=wrap;" vertex="1" parent="8T8P0orawlrlJ7Gp9K8P-10">
          <mxGeometry x="420" y="69.5" width="180" height="68" as="geometry" />
        </mxCell>
        <mxCell id="MqT093NhRoBbuphoOy9v-8" value="" style="shape=module;jettyWidth=8;jettyHeight=4;" vertex="1" parent="MqT093NhRoBbuphoOy9v-7">
          <mxGeometry x="1" width="20" height="20" relative="1" as="geometry">
            <mxPoint x="-27" y="7" as="offset" />
          </mxGeometry>
        </mxCell>
        <mxCell id="MqT093NhRoBbuphoOy9v-17" value="«artifact»&lt;br&gt;&lt;b&gt;docker/login-action@master&lt;/b&gt;" style="html=1;dropTarget=0;whiteSpace=wrap;" vertex="1" parent="8T8P0orawlrlJ7Gp9K8P-10">
          <mxGeometry x="20" y="69.5" width="180" height="68" as="geometry" />
        </mxCell>
        <mxCell id="MqT093NhRoBbuphoOy9v-18" value="" style="shape=module;jettyWidth=8;jettyHeight=4;" vertex="1" parent="MqT093NhRoBbuphoOy9v-17">
          <mxGeometry x="1" width="20" height="20" relative="1" as="geometry">
            <mxPoint x="-27" y="7" as="offset" />
          </mxGeometry>
        </mxCell>
        <mxCell id="MqT093NhRoBbuphoOy9v-21" value="«artifact»&lt;br&gt;&lt;b&gt;docker/setup-buildx-action@master&lt;/b&gt;" style="html=1;dropTarget=0;whiteSpace=wrap;" vertex="1" parent="8T8P0orawlrlJ7Gp9K8P-10">
          <mxGeometry x="220" y="69.5" width="180" height="68" as="geometry" />
        </mxCell>
        <mxCell id="MqT093NhRoBbuphoOy9v-22" value="" style="shape=module;jettyWidth=8;jettyHeight=4;" vertex="1" parent="MqT093NhRoBbuphoOy9v-21">
          <mxGeometry x="1" width="20" height="20" relative="1" as="geometry">
            <mxPoint x="-27" y="7" as="offset" />
          </mxGeometry>
        </mxCell>
        <mxCell id="8T8P0orawlrlJ7Gp9K8P-11" value="" style="group" vertex="1" connectable="0" parent="8T8P0orawlrlJ7Gp9K8P-12">
          <mxGeometry x="111" y="240" width="420" height="157.5" as="geometry" />
        </mxCell>
        <mxCell id="8T8P0orawlrlJ7Gp9K8P-2" value="&lt;br&gt;&lt;br&gt;&quot;Deploy to DigitalOcean&quot;-job" style="shape=folder;fontStyle=1;spacingTop=10;tabWidth=140;tabHeight=30;tabPosition=left;html=1;whiteSpace=wrap;verticalAlign=top;" vertex="1" parent="8T8P0orawlrlJ7Gp9K8P-11">
          <mxGeometry width="420" height="157.5" as="geometry" />
        </mxCell>
        <mxCell id="MqT093NhRoBbuphoOy9v-9" value="«artifact»&lt;br&gt;&lt;b&gt;appleboy/ssh-action@master&lt;/b&gt;" style="html=1;dropTarget=0;whiteSpace=wrap;" vertex="1" parent="8T8P0orawlrlJ7Gp9K8P-11">
          <mxGeometry x="220" y="69.5" width="180" height="68" as="geometry" />
        </mxCell>
        <mxCell id="MqT093NhRoBbuphoOy9v-10" value="" style="shape=module;jettyWidth=8;jettyHeight=4;" vertex="1" parent="MqT093NhRoBbuphoOy9v-9">
          <mxGeometry x="1" width="20" height="20" relative="1" as="geometry">
            <mxPoint x="-27" y="7" as="offset" />
          </mxGeometry>
        </mxCell>
        <mxCell id="MqT093NhRoBbuphoOy9v-19" value="«artifact»&lt;br&gt;&lt;b&gt;appleboy/scp-action@master&lt;/b&gt;" style="html=1;dropTarget=0;whiteSpace=wrap;" vertex="1" parent="8T8P0orawlrlJ7Gp9K8P-11">
          <mxGeometry x="20" y="69.5" width="180" height="68" as="geometry" />
        </mxCell>
        <mxCell id="MqT093NhRoBbuphoOy9v-20" value="" style="shape=module;jettyWidth=8;jettyHeight=4;" vertex="1" parent="MqT093NhRoBbuphoOy9v-19">
          <mxGeometry x="1" width="20" height="20" relative="1" as="geometry">
            <mxPoint x="-27" y="7" as="offset" />
          </mxGeometry>
        </mxCell>
        <mxCell id="8T8P0orawlrlJ7Gp9K8P-14" value="" style="endArrow=classic;html=1;rounded=0;" edge="1" parent="IdghF8tD-fZZ1xPUse18-1" source="8T8P0orawlrlJ7Gp9K8P-0" target="8T8P0orawlrlJ7Gp9K8P-18">
          <mxGeometry width="50" height="50" relative="1" as="geometry">
            <mxPoint x="1170" y="-370" as="sourcePoint" />
            <mxPoint x="953" y="-424.83934169278996" as="targetPoint" />
          </mxGeometry>
        </mxCell>
        <mxCell id="8T8P0orawlrlJ7Gp9K8P-15" value="" style="endArrow=classic;html=1;rounded=0;" edge="1" parent="IdghF8tD-fZZ1xPUse18-1" source="8T8P0orawlrlJ7Gp9K8P-0" target="llDihB3YxBTTd4F39NOo-11">
          <mxGeometry width="50" height="50" relative="1" as="geometry">
            <mxPoint x="1090" y="-400" as="sourcePoint" />
            <mxPoint x="1140" y="-450" as="targetPoint" />
          </mxGeometry>
        </mxCell>
        <mxCell id="8T8P0orawlrlJ7Gp9K8P-16" value="" style="endArrow=classic;html=1;rounded=0;edgeStyle=orthogonalEdgeStyle;curved=1;exitX=1;exitY=0.5;exitDx=0;exitDy=0;entryX=0.014;entryY=0.911;entryDx=0;entryDy=0;entryPerimeter=0;" edge="1" parent="IdghF8tD-fZZ1xPUse18-1" source="MqT093NhRoBbuphoOy9v-9" target="8T8P0orawlrlJ7Gp9K8P-23">
          <mxGeometry width="50" height="50" relative="1" as="geometry">
            <mxPoint x="1410" y="-350" as="sourcePoint" />
            <mxPoint x="1820" y="-66" as="targetPoint" />
          </mxGeometry>
        </mxCell>
        <mxCell id="8T8P0orawlrlJ7Gp9K8P-17" value="" style="endArrow=classic;html=1;rounded=0;" edge="1" parent="IdghF8tD-fZZ1xPUse18-1" source="MqT093NhRoBbuphoOy9v-19" target="8T8P0orawlrlJ7Gp9K8P-18">
          <mxGeometry width="50" height="50" relative="1" as="geometry">
            <mxPoint x="1060" y="-160" as="sourcePoint" />
            <mxPoint x="953" y="-390.3142002176278" as="targetPoint" />
          </mxGeometry>
        </mxCell>
        <mxCell id="8T8P0orawlrlJ7Gp9K8P-18" value="«artifact»&lt;br&gt;&lt;b&gt;minitwit repository&lt;/b&gt;" style="html=1;dropTarget=0;whiteSpace=wrap;" vertex="1" parent="IdghF8tD-fZZ1xPUse18-1">
          <mxGeometry x="770" y="-440" width="180" height="68" as="geometry" />
        </mxCell>
        <mxCell id="8T8P0orawlrlJ7Gp9K8P-19" value="" style="shape=module;jettyWidth=8;jettyHeight=4;" vertex="1" parent="8T8P0orawlrlJ7Gp9K8P-18">
          <mxGeometry x="1" width="20" height="20" relative="1" as="geometry">
            <mxPoint x="-27" y="7" as="offset" />
          </mxGeometry>
        </mxCell>
        <mxCell id="8T8P0orawlrlJ7Gp9K8P-20" value="" style="endArrow=classic;html=1;rounded=0;edgeStyle=orthogonalEdgeStyle;elbow=vertical;curved=1;entryX=0;entryY=0.5;entryDx=0;entryDy=0;exitX=0.5;exitY=1;exitDx=0;exitDy=0;" edge="1" parent="IdghF8tD-fZZ1xPUse18-1" source="MqT093NhRoBbuphoOy9v-19" target="MqT093NhRoBbuphoOy9v-1">
          <mxGeometry width="50" height="50" relative="1" as="geometry">
            <mxPoint x="1610" y="-10" as="sourcePoint" />
            <mxPoint x="2197" y="292" as="targetPoint" />
          </mxGeometry>
        </mxCell>
        <mxCell id="8T8P0orawlrlJ7Gp9K8P-22" value="" style="endArrow=classic;html=1;rounded=0;edgeStyle=orthogonalEdgeStyle;elbow=vertical;curved=1;entryX=0;entryY=0.5;entryDx=0;entryDy=0;exitX=0.5;exitY=1;exitDx=0;exitDy=0;" edge="1" parent="IdghF8tD-fZZ1xPUse18-1" source="MqT093NhRoBbuphoOy9v-19" target="MqT093NhRoBbuphoOy9v-4">
          <mxGeometry width="50" height="50" relative="1" as="geometry">
            <mxPoint x="1310" y="-90" as="sourcePoint" />
            <mxPoint x="1939" y="327" as="targetPoint" />
          </mxGeometry>
        </mxCell>
        <mxCell id="8T8P0orawlrlJ7Gp9K8P-24" value="«artifact»&lt;br&gt;&lt;b&gt;duwuops/minitwit:prod&lt;/b&gt;" style="html=1;dropTarget=0;whiteSpace=wrap;" vertex="1" parent="IdghF8tD-fZZ1xPUse18-1">
          <mxGeometry x="2590" y="-110" width="180" height="68" as="geometry" />
        </mxCell>
        <mxCell id="8T8P0orawlrlJ7Gp9K8P-25" value="" style="shape=module;jettyWidth=8;jettyHeight=4;" vertex="1" parent="8T8P0orawlrlJ7Gp9K8P-24">
          <mxGeometry x="1" width="20" height="20" relative="1" as="geometry">
            <mxPoint x="-27" y="7" as="offset" />
          </mxGeometry>
        </mxCell>
        <mxCell id="8T8P0orawlrlJ7Gp9K8P-34" value="«artifact»&lt;br&gt;&lt;b&gt;duwuops/minitwit:prod&lt;/b&gt;" style="html=1;dropTarget=0;whiteSpace=wrap;" vertex="1" parent="IdghF8tD-fZZ1xPUse18-1">
          <mxGeometry x="2590" y="200" width="180" height="68" as="geometry" />
        </mxCell>
        <mxCell id="8T8P0orawlrlJ7Gp9K8P-35" value="" style="shape=module;jettyWidth=8;jettyHeight=4;" vertex="1" parent="8T8P0orawlrlJ7Gp9K8P-34">
          <mxGeometry x="1" width="20" height="20" relative="1" as="geometry">
            <mxPoint x="-27" y="7" as="offset" />
          </mxGeometry>
        </mxCell>
        <mxCell id="8T8P0orawlrlJ7Gp9K8P-36" value="" style="endArrow=classic;html=1;rounded=0;" edge="1" parent="IdghF8tD-fZZ1xPUse18-1" source="8T8P0orawlrlJ7Gp9K8P-23" target="llDihB3YxBTTd4F39NOo-11">
          <mxGeometry width="50" height="50" relative="1" as="geometry">
            <mxPoint x="2140" y="-150" as="sourcePoint" />
            <mxPoint x="2190" y="-200" as="targetPoint" />
          </mxGeometry>
        </mxCell>
        <mxCell id="8T8P0orawlrlJ7Gp9K8P-39" value="" style="endArrow=classic;startArrow=classic;html=1;rounded=0;" edge="1" parent="IdghF8tD-fZZ1xPUse18-1" source="8T8P0orawlrlJ7Gp9K8P-23" target="8T8P0orawlrlJ7Gp9K8P-24">
          <mxGeometry width="50" height="50" relative="1" as="geometry">
            <mxPoint x="2250" y="10" as="sourcePoint" />
            <mxPoint x="2300" y="-40" as="targetPoint" />
          </mxGeometry>
        </mxCell>
        <mxCell id="8T8P0orawlrlJ7Gp9K8P-40" value="" style="endArrow=classic;startArrow=classic;html=1;rounded=0;" edge="1" parent="IdghF8tD-fZZ1xPUse18-1" source="8T8P0orawlrlJ7Gp9K8P-23" target="8T8P0orawlrlJ7Gp9K8P-34">
          <mxGeometry width="50" height="50" relative="1" as="geometry">
            <mxPoint x="2510" y="193" as="sourcePoint" />
            <mxPoint x="2620" y="160" as="targetPoint" />
          </mxGeometry>
        </mxCell>
        <mxCell id="8T8P0orawlrlJ7Gp9K8P-42" value="" style="endArrow=classic;html=1;rounded=0;" edge="1" parent="IdghF8tD-fZZ1xPUse18-1" source="8T8P0orawlrlJ7Gp9K8P-23" target="Jr-4Hn71MBpdXtiZNSK_-2">
          <mxGeometry width="50" height="50" relative="1" as="geometry">
            <mxPoint x="2340" y="-40" as="sourcePoint" />
            <mxPoint x="2390" y="-90" as="targetPoint" />
          </mxGeometry>
        </mxCell>
        <mxCell id="8T8P0orawlrlJ7Gp9K8P-43" value="" style="endArrow=classic;html=1;rounded=0;exitX=1;exitY=0.5;exitDx=0;exitDy=0;entryX=0.145;entryY=0;entryDx=0;entryDy=4.35;entryPerimeter=0;" edge="1" parent="IdghF8tD-fZZ1xPUse18-1" source="8T8P0orawlrlJ7Gp9K8P-24" target="Jr-4Hn71MBpdXtiZNSK_-2">
          <mxGeometry width="50" height="50" relative="1" as="geometry">
            <mxPoint x="2340" y="-40" as="sourcePoint" />
            <mxPoint x="2390" y="-90" as="targetPoint" />
          </mxGeometry>
        </mxCell>
        <mxCell id="8T8P0orawlrlJ7Gp9K8P-44" value="" style="endArrow=classic;html=1;rounded=0;exitX=1;exitY=0.5;exitDx=0;exitDy=0;entryX=0.145;entryY=1;entryDx=0;entryDy=-4.35;entryPerimeter=0;" edge="1" parent="IdghF8tD-fZZ1xPUse18-1" source="8T8P0orawlrlJ7Gp9K8P-34" target="Jr-4Hn71MBpdXtiZNSK_-2">
          <mxGeometry width="50" height="50" relative="1" as="geometry">
            <mxPoint x="2340" y="-40" as="sourcePoint" />
            <mxPoint x="2390" y="-90" as="targetPoint" />
          </mxGeometry>
        </mxCell>
        <mxCell id="8T8P0orawlrlJ7Gp9K8P-46" value="" style="group" vertex="1" connectable="0" parent="IdghF8tD-fZZ1xPUse18-1">
          <mxGeometry x="2050" y="-85" width="440" height="330" as="geometry" />
        </mxCell>
        <mxCell id="8T8P0orawlrlJ7Gp9K8P-23" value="&amp;lt;&amp;lt;executionEnvironment&amp;gt;&amp;gt;&lt;br&gt;&lt;b&gt;Docker&lt;/b&gt;" style="verticalAlign=top;align=center;spacingTop=8;spacingLeft=2;spacingRight=12;shape=cube;size=10;direction=south;fontStyle=0;html=1;whiteSpace=wrap;" vertex="1" parent="8T8P0orawlrlJ7Gp9K8P-46">
          <mxGeometry width="440" height="330" as="geometry" />
        </mxCell>
        <mxCell id="8T8P0orawlrlJ7Gp9K8P-26" value="«artifact»&lt;br&gt;&lt;b&gt;duwuops/grafana:prod&lt;/b&gt;" style="html=1;dropTarget=0;whiteSpace=wrap;" vertex="1" parent="8T8P0orawlrlJ7Gp9K8P-46">
          <mxGeometry x="28" y="152" width="180" height="68" as="geometry" />
        </mxCell>
        <mxCell id="8T8P0orawlrlJ7Gp9K8P-27" value="" style="shape=module;jettyWidth=8;jettyHeight=4;" vertex="1" parent="8T8P0orawlrlJ7Gp9K8P-26">
          <mxGeometry x="1" width="20" height="20" relative="1" as="geometry">
            <mxPoint x="-27" y="7" as="offset" />
          </mxGeometry>
        </mxCell>
        <mxCell id="8T8P0orawlrlJ7Gp9K8P-28" value="«artifact»&lt;br&gt;&lt;b&gt;duwuops/prometheus:prod&lt;/b&gt;" style="html=1;dropTarget=0;whiteSpace=wrap;" vertex="1" parent="8T8P0orawlrlJ7Gp9K8P-46">
          <mxGeometry x="28" y="72" width="180" height="68" as="geometry" />
        </mxCell>
        <mxCell id="8T8P0orawlrlJ7Gp9K8P-29" value="" style="shape=module;jettyWidth=8;jettyHeight=4;" vertex="1" parent="8T8P0orawlrlJ7Gp9K8P-28">
          <mxGeometry x="1" width="20" height="20" relative="1" as="geometry">
            <mxPoint x="-27" y="7" as="offset" />
          </mxGeometry>
        </mxCell>
        <mxCell id="8T8P0orawlrlJ7Gp9K8P-30" value="«artifact»&lt;br&gt;&lt;b&gt;duwuops/alloy:prod&lt;/b&gt;" style="html=1;dropTarget=0;whiteSpace=wrap;" vertex="1" parent="8T8P0orawlrlJ7Gp9K8P-46">
          <mxGeometry x="28" y="240" width="180" height="68" as="geometry" />
        </mxCell>
        <mxCell id="8T8P0orawlrlJ7Gp9K8P-31" value="" style="shape=module;jettyWidth=8;jettyHeight=4;" vertex="1" parent="8T8P0orawlrlJ7Gp9K8P-30">
          <mxGeometry x="1" width="20" height="20" relative="1" as="geometry">
            <mxPoint x="-27" y="7" as="offset" />
          </mxGeometry>
        </mxCell>
        <mxCell id="8T8P0orawlrlJ7Gp9K8P-32" value="«artifact»&lt;br&gt;&lt;b&gt;duwuops/loki:prod&lt;/b&gt;" style="html=1;dropTarget=0;whiteSpace=wrap;" vertex="1" parent="8T8P0orawlrlJ7Gp9K8P-46">
          <mxGeometry x="220" y="151" width="180" height="68" as="geometry" />
        </mxCell>
        <mxCell id="8T8P0orawlrlJ7Gp9K8P-33" value="" style="shape=module;jettyWidth=8;jettyHeight=4;" vertex="1" parent="8T8P0orawlrlJ7Gp9K8P-32">
          <mxGeometry x="1" width="20" height="20" relative="1" as="geometry">
            <mxPoint x="-27" y="7" as="offset" />
          </mxGeometry>
        </mxCell>
      </root>
    </mxGraphModel>
  </diagram>
  <diagram id="vLgKv4cOXEmkLg91eTZu" name="Network Minitwit">
    <mxGraphModel dx="1577" dy="1220" grid="1" gridSize="10" guides="1" tooltips="1" connect="1" arrows="1" fold="1" page="1" pageScale="1" pageWidth="827" pageHeight="1169" math="0" shadow="0">
      <root>
        <mxCell id="0" />
        <mxCell id="1" parent="0" />
        <mxCell id="LdldmC_KoFV3qTHn64M2-1" value="&amp;lt;&amp;lt;device&amp;gt;&amp;gt;&lt;br&gt;&lt;b&gt;DigitalOcean Web Server&lt;/b&gt;" style="verticalAlign=top;align=center;spacingTop=8;spacingLeft=2;spacingRight=12;shape=cube;size=10;direction=south;fontStyle=0;html=1;whiteSpace=wrap;" vertex="1" parent="1">
          <mxGeometry x="330" y="650" width="1400" height="720" as="geometry" />
        </mxCell>
        <mxCell id="LdldmC_KoFV3qTHn64M2-2" value="&amp;lt;&amp;lt;executionEnvironment&amp;gt;&amp;gt;&lt;br&gt;&lt;b&gt;Worker Node 2&amp;nbsp;&lt;/b&gt;&lt;b&gt;Droplet&lt;/b&gt;" style="verticalAlign=top;align=center;spacingTop=8;spacingLeft=2;spacingRight=12;shape=cube;size=10;direction=south;fontStyle=0;html=1;whiteSpace=wrap;" vertex="1" parent="1">
          <mxGeometry x="1440" y="738" width="280" height="290" as="geometry" />
        </mxCell>
        <mxCell id="LdldmC_KoFV3qTHn64M2-3" value="&amp;lt;&amp;lt;executionEnvironment&amp;gt;&amp;gt;&lt;br&gt;&lt;b&gt;Worker Node 2&amp;nbsp;&lt;/b&gt;&lt;b&gt;Droplet&lt;/b&gt;" style="verticalAlign=top;align=center;spacingTop=8;spacingLeft=2;spacingRight=12;shape=cube;size=10;direction=south;fontStyle=0;html=1;whiteSpace=wrap;" vertex="1" parent="1">
          <mxGeometry x="1460" y="808" width="230" height="210" as="geometry" />
        </mxCell>
        <mxCell id="LdldmC_KoFV3qTHn64M2-4" value="«artifact»&lt;br&gt;&lt;b&gt;duwuops/alloy:prod&lt;/b&gt;" style="html=1;dropTarget=0;whiteSpace=wrap;" vertex="1" parent="1">
          <mxGeometry x="1480" y="858" width="180" height="68" as="geometry" />
        </mxCell>
        <mxCell id="LdldmC_KoFV3qTHn64M2-5" value="" style="shape=module;jettyWidth=8;jettyHeight=4;" vertex="1" parent="LdldmC_KoFV3qTHn64M2-4">
          <mxGeometry x="1" width="20" height="20" relative="1" as="geometry">
            <mxPoint x="-27" y="7" as="offset" />
          </mxGeometry>
        </mxCell>
        <mxCell id="LdldmC_KoFV3qTHn64M2-6" value="«artifact»&lt;br&gt;&lt;b&gt;duwuops/minitwit:prod&lt;/b&gt;" style="html=1;dropTarget=0;whiteSpace=wrap;" vertex="1" parent="1">
          <mxGeometry x="1480" y="936" width="180" height="68" as="geometry" />
        </mxCell>
        <mxCell id="LdldmC_KoFV3qTHn64M2-7" value="" style="shape=module;jettyWidth=8;jettyHeight=4;" vertex="1" parent="LdldmC_KoFV3qTHn64M2-6">
          <mxGeometry x="1" width="20" height="20" relative="1" as="geometry">
            <mxPoint x="-27" y="7" as="offset" />
          </mxGeometry>
        </mxCell>
        <mxCell id="LdldmC_KoFV3qTHn64M2-8" value="&amp;lt;&amp;lt;executionEnvironment&amp;gt;&amp;gt;&lt;br&gt;&lt;b&gt;Worker Node 1&amp;nbsp;&lt;/b&gt;&lt;b&gt;Droplet&lt;/b&gt;" style="verticalAlign=top;align=center;spacingTop=8;spacingLeft=2;spacingRight=12;shape=cube;size=10;direction=south;fontStyle=0;html=1;whiteSpace=wrap;" vertex="1" parent="1">
          <mxGeometry x="1120" y="740" width="280" height="286" as="geometry" />
        </mxCell>
        <mxCell id="LdldmC_KoFV3qTHn64M2-9" value="&amp;lt;&amp;lt;executionEnvironment&amp;gt;&amp;gt;&lt;br&gt;&lt;b&gt;Worker Node 1&amp;nbsp;&lt;/b&gt;&lt;b&gt;Droplet&lt;/b&gt;" style="verticalAlign=top;align=center;spacingTop=8;spacingLeft=2;spacingRight=12;shape=cube;size=10;direction=south;fontStyle=0;html=1;whiteSpace=wrap;" vertex="1" parent="1">
          <mxGeometry x="1140" y="810" width="230" height="206" as="geometry" />
        </mxCell>
        <mxCell id="LdldmC_KoFV3qTHn64M2-10" value="«artifact»&lt;br&gt;&lt;b&gt;duwuops/alloy:prod&lt;/b&gt;" style="html=1;dropTarget=0;whiteSpace=wrap;" vertex="1" parent="1">
          <mxGeometry x="1160" y="860" width="180" height="68" as="geometry" />
        </mxCell>
        <mxCell id="LdldmC_KoFV3qTHn64M2-11" value="" style="shape=module;jettyWidth=8;jettyHeight=4;" vertex="1" parent="LdldmC_KoFV3qTHn64M2-10">
          <mxGeometry x="1" width="20" height="20" relative="1" as="geometry">
            <mxPoint x="-27" y="7" as="offset" />
          </mxGeometry>
        </mxCell>
        <mxCell id="LdldmC_KoFV3qTHn64M2-12" value="«artifact»&lt;br&gt;&lt;b&gt;duwuops/minitwit:prod&lt;/b&gt;" style="html=1;dropTarget=0;whiteSpace=wrap;" vertex="1" parent="1">
          <mxGeometry x="1160" y="936" width="180" height="68" as="geometry" />
        </mxCell>
        <mxCell id="LdldmC_KoFV3qTHn64M2-13" value="" style="shape=module;jettyWidth=8;jettyHeight=4;" vertex="1" parent="LdldmC_KoFV3qTHn64M2-12">
          <mxGeometry x="1" width="20" height="20" relative="1" as="geometry">
            <mxPoint x="-27" y="7" as="offset" />
          </mxGeometry>
        </mxCell>
        <mxCell id="LdldmC_KoFV3qTHn64M2-14" value="&amp;lt;&amp;lt;executionEnvironment&amp;gt;&amp;gt;&lt;br&gt;&lt;b&gt;Manager Node&amp;nbsp;&lt;/b&gt;&lt;b&gt;Droplet&lt;/b&gt;" style="verticalAlign=top;align=center;spacingTop=8;spacingLeft=2;spacingRight=12;shape=cube;size=10;direction=south;fontStyle=0;html=1;whiteSpace=wrap;" vertex="1" parent="1">
          <mxGeometry x="360" y="880" width="710" height="300" as="geometry" />
        </mxCell>
        <mxCell id="LdldmC_KoFV3qTHn64M2-15" value="" style="group" vertex="1" connectable="0" parent="1">
          <mxGeometry x="1180" y="1210" width="220" height="130" as="geometry" />
        </mxCell>
        <mxCell id="LdldmC_KoFV3qTHn64M2-16" value="&amp;lt;&amp;lt;executionEnvironment&amp;gt;&amp;gt;&lt;br&gt;&lt;b&gt;Database Droplet&lt;/b&gt;" style="verticalAlign=top;align=center;spacingTop=8;spacingLeft=2;spacingRight=12;shape=cube;size=10;direction=south;fontStyle=0;html=1;whiteSpace=wrap;" vertex="1" parent="LdldmC_KoFV3qTHn64M2-15">
          <mxGeometry width="220" height="130" as="geometry" />
        </mxCell>
        <mxCell id="LdldmC_KoFV3qTHn64M2-17" value="PostgreSQL Container" style="shape=cylinder3;whiteSpace=wrap;html=1;boundedLbl=1;backgroundOutline=1;size=15;" vertex="1" parent="LdldmC_KoFV3qTHn64M2-15">
          <mxGeometry x="17" y="52" width="180" height="66" as="geometry" />
        </mxCell>
        <mxCell id="LdldmC_KoFV3qTHn64M2-18" value="" style="endArrow=none;html=1;rounded=0;startFill=0;entryX=1.018;entryY=0.757;entryDx=0;entryDy=0;entryPerimeter=0;exitX=0.002;exitY=0.79;exitDx=0;exitDy=0;exitPerimeter=0;" edge="1" parent="1" source="LdldmC_KoFV3qTHn64M2-14" target="LdldmC_KoFV3qTHn64M2-23">
          <mxGeometry width="50" height="50" relative="1" as="geometry">
            <mxPoint x="815.4100215517242" y="790" as="sourcePoint" />
            <mxPoint x="730" y="620" as="targetPoint" />
          </mxGeometry>
        </mxCell>
        <mxCell id="LdldmC_KoFV3qTHn64M2-19" value="" style="endArrow=none;startArrow=none;html=1;rounded=0;startFill=0;edgeStyle=orthogonalEdgeStyle;curved=1;" edge="1" parent="1" source="LdldmC_KoFV3qTHn64M2-34" target="LdldmC_KoFV3qTHn64M2-9">
          <mxGeometry width="50" height="50" relative="1" as="geometry">
            <mxPoint x="1050" y="1163" as="sourcePoint" />
            <mxPoint x="1160" y="1130" as="targetPoint" />
          </mxGeometry>
        </mxCell>
        <mxCell id="LdldmC_KoFV3qTHn64M2-20" value="" style="endArrow=none;html=1;rounded=0;startFill=0;startArrow=none;" edge="1" parent="1" source="LdldmC_KoFV3qTHn64M2-34" target="LdldmC_KoFV3qTHn64M2-17">
          <mxGeometry width="50" height="50" relative="1" as="geometry">
            <mxPoint x="880" y="930" as="sourcePoint" />
            <mxPoint x="930" y="880" as="targetPoint" />
          </mxGeometry>
        </mxCell>
        <mxCell id="LdldmC_KoFV3qTHn64M2-21" value="" style="endArrow=none;html=1;rounded=0;exitX=0.5;exitY=1;exitDx=0;exitDy=0;startFill=0;startArrow=none;" edge="1" parent="1" source="LdldmC_KoFV3qTHn64M2-12" target="LdldmC_KoFV3qTHn64M2-17">
          <mxGeometry width="50" height="50" relative="1" as="geometry">
            <mxPoint x="880" y="930" as="sourcePoint" />
            <mxPoint x="930" y="880" as="targetPoint" />
          </mxGeometry>
        </mxCell>
        <mxCell id="LdldmC_KoFV3qTHn64M2-22" value="" style="group" vertex="1" connectable="0" parent="1">
          <mxGeometry x="270" y="460" width="990" height="150" as="geometry" />
        </mxCell>
        <mxCell id="LdldmC_KoFV3qTHn64M2-23" value="&amp;lt;&amp;lt;device&amp;gt;&amp;gt;&lt;br&gt;&lt;b&gt;DockerHub Web Server&lt;/b&gt;" style="verticalAlign=top;align=center;spacingTop=8;spacingLeft=2;spacingRight=12;shape=cube;size=10;direction=south;fontStyle=0;html=1;whiteSpace=wrap;" vertex="1" parent="LdldmC_KoFV3qTHn64M2-22">
          <mxGeometry width="990" height="150" as="geometry" />
        </mxCell>
        <mxCell id="LdldmC_KoFV3qTHn64M2-24" value="«artifact»&lt;br&gt;&lt;b&gt;duwuops/minitwit:prod&lt;/b&gt;" style="html=1;dropTarget=0;whiteSpace=wrap;" vertex="1" parent="LdldmC_KoFV3qTHn64M2-22">
          <mxGeometry x="20" y="60" width="180" height="68" as="geometry" />
        </mxCell>
        <mxCell id="LdldmC_KoFV3qTHn64M2-25" value="" style="shape=module;jettyWidth=8;jettyHeight=4;" vertex="1" parent="LdldmC_KoFV3qTHn64M2-24">
          <mxGeometry x="1" width="20" height="20" relative="1" as="geometry">
            <mxPoint x="-27" y="7" as="offset" />
          </mxGeometry>
        </mxCell>
        <mxCell id="LdldmC_KoFV3qTHn64M2-26" value="«artifact»&lt;br&gt;&lt;b&gt;duwuops/grafana:prod&lt;/b&gt;" style="html=1;dropTarget=0;whiteSpace=wrap;" vertex="1" parent="LdldmC_KoFV3qTHn64M2-22">
          <mxGeometry x="400" y="60" width="180" height="68" as="geometry" />
        </mxCell>
        <mxCell id="LdldmC_KoFV3qTHn64M2-27" value="" style="shape=module;jettyWidth=8;jettyHeight=4;" vertex="1" parent="LdldmC_KoFV3qTHn64M2-26">
          <mxGeometry x="1" width="20" height="20" relative="1" as="geometry">
            <mxPoint x="-27" y="7" as="offset" />
          </mxGeometry>
        </mxCell>
        <mxCell id="LdldmC_KoFV3qTHn64M2-28" value="«artifact»&lt;br&gt;&lt;b&gt;duwuops/prometheus:prod&lt;/b&gt;" style="html=1;dropTarget=0;whiteSpace=wrap;" vertex="1" parent="LdldmC_KoFV3qTHn64M2-22">
          <mxGeometry x="210" y="60" width="180" height="68" as="geometry" />
        </mxCell>
        <mxCell id="LdldmC_KoFV3qTHn64M2-29" value="" style="shape=module;jettyWidth=8;jettyHeight=4;" vertex="1" parent="LdldmC_KoFV3qTHn64M2-28">
          <mxGeometry x="1" width="20" height="20" relative="1" as="geometry">
            <mxPoint x="-27" y="7" as="offset" />
          </mxGeometry>
        </mxCell>
        <mxCell id="LdldmC_KoFV3qTHn64M2-30" value="«artifact»&lt;br&gt;&lt;b&gt;duwuops/alloy:prod&lt;/b&gt;" style="html=1;dropTarget=0;whiteSpace=wrap;" vertex="1" parent="LdldmC_KoFV3qTHn64M2-22">
          <mxGeometry x="590" y="60" width="180" height="68" as="geometry" />
        </mxCell>
        <mxCell id="LdldmC_KoFV3qTHn64M2-31" value="" style="shape=module;jettyWidth=8;jettyHeight=4;" vertex="1" parent="LdldmC_KoFV3qTHn64M2-30">
          <mxGeometry x="1" width="20" height="20" relative="1" as="geometry">
            <mxPoint x="-27" y="7" as="offset" />
          </mxGeometry>
        </mxCell>
        <mxCell id="LdldmC_KoFV3qTHn64M2-32" value="«artifact»&lt;br&gt;&lt;b&gt;duwuops/loki:prod&lt;/b&gt;" style="html=1;dropTarget=0;whiteSpace=wrap;" vertex="1" parent="LdldmC_KoFV3qTHn64M2-22">
          <mxGeometry x="780" y="60" width="180" height="68" as="geometry" />
        </mxCell>
        <mxCell id="LdldmC_KoFV3qTHn64M2-33" value="" style="shape=module;jettyWidth=8;jettyHeight=4;" vertex="1" parent="LdldmC_KoFV3qTHn64M2-32">
          <mxGeometry x="1" width="20" height="20" relative="1" as="geometry">
            <mxPoint x="-27" y="7" as="offset" />
          </mxGeometry>
        </mxCell>
        <mxCell id="LdldmC_KoFV3qTHn64M2-34" value="&amp;lt;&amp;lt;executionEnvironment&amp;gt;&amp;gt;&lt;br&gt;&lt;b&gt;Docker&lt;/b&gt;" style="verticalAlign=top;align=center;spacingTop=8;spacingLeft=2;spacingRight=12;shape=cube;size=10;direction=south;fontStyle=0;html=1;whiteSpace=wrap;container=0;" vertex="1" parent="1">
          <mxGeometry x="598" y="940" width="440" height="220" as="geometry" />
        </mxCell>
        <mxCell id="LdldmC_KoFV3qTHn64M2-35" value="«artifact»&lt;br&gt;&lt;b&gt;duwuops/grafana:prod&lt;/b&gt;" style="html=1;dropTarget=0;whiteSpace=wrap;" vertex="1" parent="1">
          <mxGeometry x="626" y="1076" width="180" height="68" as="geometry" />
        </mxCell>
        <mxCell id="LdldmC_KoFV3qTHn64M2-36" value="" style="shape=module;jettyWidth=8;jettyHeight=4;" vertex="1" parent="LdldmC_KoFV3qTHn64M2-35">
          <mxGeometry x="1" width="20" height="20" relative="1" as="geometry">
            <mxPoint x="-27" y="7" as="offset" />
          </mxGeometry>
        </mxCell>
        <mxCell id="LdldmC_KoFV3qTHn64M2-37" value="«artifact»&lt;br&gt;&lt;b&gt;duwuops/prometheus:prod&lt;/b&gt;" style="html=1;dropTarget=0;whiteSpace=wrap;" vertex="1" parent="1">
          <mxGeometry x="626" y="996" width="180" height="68" as="geometry" />
        </mxCell>
        <mxCell id="LdldmC_KoFV3qTHn64M2-38" value="" style="shape=module;jettyWidth=8;jettyHeight=4;" vertex="1" parent="LdldmC_KoFV3qTHn64M2-37">
          <mxGeometry x="1" width="20" height="20" relative="1" as="geometry">
            <mxPoint x="-27" y="7" as="offset" />
          </mxGeometry>
        </mxCell>
        <mxCell id="LdldmC_KoFV3qTHn64M2-39" value="«artifact»&lt;br&gt;&lt;b&gt;duwuops/loki:prod&lt;/b&gt;" style="html=1;dropTarget=0;whiteSpace=wrap;" vertex="1" parent="1">
          <mxGeometry x="818" y="1075" width="180" height="68" as="geometry" />
        </mxCell>
        <mxCell id="LdldmC_KoFV3qTHn64M2-40" value="" style="shape=module;jettyWidth=8;jettyHeight=4;" vertex="1" parent="LdldmC_KoFV3qTHn64M2-39">
          <mxGeometry x="1" width="20" height="20" relative="1" as="geometry">
            <mxPoint x="-27" y="7" as="offset" />
          </mxGeometry>
        </mxCell>
        <mxCell id="LdldmC_KoFV3qTHn64M2-41" value="«artifact»&lt;br&gt;&lt;b&gt;duwuops/alloy:prod&lt;/b&gt;" style="html=1;dropTarget=0;whiteSpace=wrap;" vertex="1" parent="1">
          <mxGeometry x="818" y="996" width="180" height="68" as="geometry" />
        </mxCell>
        <mxCell id="LdldmC_KoFV3qTHn64M2-42" value="" style="shape=module;jettyWidth=8;jettyHeight=4;" vertex="1" parent="LdldmC_KoFV3qTHn64M2-41">
          <mxGeometry x="1" width="20" height="20" relative="1" as="geometry">
            <mxPoint x="-27" y="7" as="offset" />
          </mxGeometry>
        </mxCell>
        <mxCell id="LdldmC_KoFV3qTHn64M2-43" value="" style="endArrow=none;startArrow=none;html=1;rounded=0;startFill=0;edgeStyle=orthogonalEdgeStyle;curved=1;entryX=0;entryY=0;entryDx=210;entryDy=120;entryPerimeter=0;" edge="1" parent="1" source="LdldmC_KoFV3qTHn64M2-34" target="LdldmC_KoFV3qTHn64M2-3">
          <mxGeometry width="50" height="50" relative="1" as="geometry">
            <mxPoint x="790" y="980" as="sourcePoint" />
            <mxPoint x="840" y="930" as="targetPoint" />
          </mxGeometry>
        </mxCell>
        <mxCell id="LdldmC_KoFV3qTHn64M2-44" value="" style="group" vertex="1" connectable="0" parent="1">
          <mxGeometry x="380" y="980" width="183" height="150" as="geometry" />
        </mxCell>
        <mxCell id="LdldmC_KoFV3qTHn64M2-45" value="" style="group" vertex="1" connectable="0" parent="LdldmC_KoFV3qTHn64M2-44">
          <mxGeometry y="80" width="183" height="70" as="geometry" />
        </mxCell>
        <mxCell id="LdldmC_KoFV3qTHn64M2-46" value="«deployment-spec»&lt;br&gt;&lt;b&gt;docker-compose.deploy.yml&lt;/b&gt;" style="html=1;whiteSpace=wrap;" vertex="1" parent="LdldmC_KoFV3qTHn64M2-45">
          <mxGeometry width="183" height="70" as="geometry" />
        </mxCell>
        <mxCell id="LdldmC_KoFV3qTHn64M2-47" value="" style="shape=note;whiteSpace=wrap;html=1;backgroundOutline=1;darkOpacity=0.05;size=9;" vertex="1" parent="LdldmC_KoFV3qTHn64M2-45">
          <mxGeometry x="155" y="7" width="20" height="25" as="geometry" />
        </mxCell>
        <mxCell id="LdldmC_KoFV3qTHn64M2-48" value="" style="group" vertex="1" connectable="0" parent="LdldmC_KoFV3qTHn64M2-44">
          <mxGeometry width="183" height="70" as="geometry" />
        </mxCell>
        <mxCell id="LdldmC_KoFV3qTHn64M2-49" value="«deployment-spec»&lt;br&gt;&lt;b&gt;docker-compose.yml&lt;/b&gt;" style="html=1;whiteSpace=wrap;" vertex="1" parent="LdldmC_KoFV3qTHn64M2-48">
          <mxGeometry width="183" height="70" as="geometry" />
        </mxCell>
        <mxCell id="LdldmC_KoFV3qTHn64M2-50" value="" style="shape=note;whiteSpace=wrap;html=1;backgroundOutline=1;darkOpacity=0.05;size=9;" vertex="1" parent="LdldmC_KoFV3qTHn64M2-48">
          <mxGeometry x="155" y="7" width="20" height="25" as="geometry" />
        </mxCell>
        <mxCell id="LdldmC_KoFV3qTHn64M2-51" value="" style="endArrow=none;html=1;rounded=0;exitX=0.75;exitY=1;exitDx=0;exitDy=0;entryX=1;entryY=0.5;entryDx=0;entryDy=0;entryPerimeter=0;edgeStyle=orthogonalEdgeStyle;curved=1;startFill=0;startArrow=none;" edge="1" parent="1" source="LdldmC_KoFV3qTHn64M2-6" target="LdldmC_KoFV3qTHn64M2-17">
          <mxGeometry width="50" height="50" relative="1" as="geometry">
            <mxPoint x="880" y="930" as="sourcePoint" />
            <mxPoint x="930" y="880" as="targetPoint" />
          </mxGeometry>
        </mxCell>
        <mxCell id="LdldmC_KoFV3qTHn64M2-52" value="&lt;b&gt;gateway&lt;/b&gt;&amp;nbsp;Docker Overlay Network" style="shape=umlFrame;whiteSpace=wrap;html=1;pointerEvents=0;width=290;height=40;" vertex="1" parent="1">
          <mxGeometry x="583" y="800" width="1117" height="370" as="geometry" />
        </mxCell>
      </root>
    </mxGraphModel>
  </diagram>
</mxfile>
